<svg id="dashboard" xmlns="http://www.w3.org/2000/svg" width="28.587" height="28" viewBox="0 0 28.587 28">
  <path id="Path_8551" data-name="Path 8551" d="M11.018,9.529H2.084A2.087,2.087,0,0,1,0,7.444V2.084A2.087,2.087,0,0,1,2.084,0h8.933A2.087,2.087,0,0,1,13.1,2.084v5.36A2.087,2.087,0,0,1,11.018,9.529ZM2.084,1.787a.3.3,0,0,0-.3.3v5.36a.3.3,0,0,0,.3.3h8.933a.3.3,0,0,0,.3-.3V2.084a.3.3,0,0,0-.3-.3Zm0,0" fill="#003462"/>
  <path id="Path_8552" data-name="Path 8552" d="M11.018,230.008H2.084A2.087,2.087,0,0,1,0,227.923V215.417a2.087,2.087,0,0,1,2.084-2.085h8.933a2.087,2.087,0,0,1,2.085,2.085v12.507A2.087,2.087,0,0,1,11.018,230.008ZM2.084,215.119a.3.3,0,0,0-.3.3v12.507a.3.3,0,0,0,.3.3h8.933a.3.3,0,0,0,.3-.3V215.417a.3.3,0,0,0-.3-.3Zm0,0" transform="translate(0 -202.008)" fill="#003462"/>
  <path id="Path_8553" data-name="Path 8553" d="M288.35,350.861h-8.933a2.087,2.087,0,0,1-2.085-2.084v-5.36a2.087,2.087,0,0,1,2.085-2.085h8.933a2.087,2.087,0,0,1,2.084,2.085v5.36A2.087,2.087,0,0,1,288.35,350.861Zm-8.933-7.742a.3.3,0,0,0-.3.3v5.36a.3.3,0,0,0,.3.3h8.933a.3.3,0,0,0,.3-.3v-5.36a.3.3,0,0,0-.3-.3Zm0,0" transform="translate(-261.848 -322.861)" fill="#003462"/>
  <path id="Path_8554" data-name="Path 8554" d="M288.35,16.676h-8.933a2.087,2.087,0,0,1-2.085-2.085V2.084A2.087,2.087,0,0,1,279.417,0h8.933a2.087,2.087,0,0,1,2.084,2.084V14.591A2.087,2.087,0,0,1,288.35,16.676ZM279.417,1.787a.3.3,0,0,0-.3.3V14.591a.3.3,0,0,0,.3.3h8.933a.3.3,0,0,0,.3-.3V2.084a.3.3,0,0,0-.3-.3Zm0,0" transform="translate(-261.848)" fill="#003462"/>
</svg>
