<svg xmlns="http://www.w3.org/2000/svg" width="22.291" height="26.75" viewBox="0 0 22.291 26.75">
  <path id="file-image" d="M6.458,10.588A1.672,1.672,0,1,1,8.13,12.26,1.672,1.672,0,0,1,6.458,10.588Zm17.833,1.1v9.491a5.579,5.579,0,0,1-5.573,5.573H7.573A5.579,5.579,0,0,1,2,21.177V5.573A5.579,5.579,0,0,1,7.573,0h5.032a7.753,7.753,0,0,1,5.517,2.285l3.884,3.884A7.751,7.751,0,0,1,24.291,11.686ZM16.545,3.861a5.608,5.608,0,0,0-1.17-.9V7.8a1.116,1.116,0,0,0,1.115,1.115h4.838a5.579,5.579,0,0,0-.9-1.17L16.546,3.862ZM4.229,21.177c0,.031,0,.062,0,.094l5.64-5.64a3.846,3.846,0,0,1,5.435,0l.685.685a1.5,1.5,0,0,0,2.111,0l3.96-3.96v-.67c0-.182-.009-.362-.026-.541H16.489A3.348,3.348,0,0,1,13.146,7.8V2.255c-.178-.017-.359-.026-.541-.026H7.573A3.348,3.348,0,0,0,4.229,5.573v15.6Zm17.833,0V15.508l-2.384,2.384a3.725,3.725,0,0,1-5.263,0l-.685-.685a1.617,1.617,0,0,0-2.283,0L5.163,23.491a3.331,3.331,0,0,0,2.41,1.03H18.718A3.348,3.348,0,0,0,22.062,21.177Z" transform="translate(-2)" fill="#757575"/>
</svg>
