<svg xmlns="http://www.w3.org/2000/svg" width="16" height="16.001" viewBox="0 0 16 16.001">
  <path id="file-edit" d="M12.542,6.667a.667.667,0,0,0,.646-.832A4.67,4.67,0,0,0,11.966,3.69L9.643,1.367A4.636,4.636,0,0,0,6.343,0H3.333A3.337,3.337,0,0,0,0,3.333v9.333A3.337,3.337,0,0,0,3.333,16h2a.667.667,0,1,0,0-1.333h-2a2,2,0,0,1-2-2V3.333a2,2,0,0,1,2-2h3.01c.109,0,.217.005.323.015V4.667a2,2,0,0,0,2,2ZM8,4.667V1.773a3.357,3.357,0,0,1,.7.537l2.323,2.323a3.363,3.363,0,0,1,.535.7H8.667A.668.668,0,0,1,8,4.667Zm7.415,3.253a2.047,2.047,0,0,0-2.829,0L8.115,12.391a2.651,2.651,0,0,0-.781,1.886v1.057A.667.667,0,0,0,8,16H9.057a2.649,2.649,0,0,0,1.885-.781l4.471-4.471a2,2,0,0,0,0-2.829ZM14.471,9.8,10,14.276a1.322,1.322,0,0,1-.943.391H8.666v-.391a1.324,1.324,0,0,1,.391-.943l4.472-4.471a.682.682,0,0,1,.943,0,.666.666,0,0,1,0,.943Z" fill="#003462"/>
</svg>
