<svg xmlns="http://www.w3.org/2000/svg" width="19" height="19" viewBox="0 0 19 19">
  <path id="memo-circle-check" d="M7.917,18.208A.791.791,0,0,1,7.125,19H3.958A3.963,3.963,0,0,1,0,15.042V3.958A3.963,3.963,0,0,1,3.958,0h6.333A3.963,3.963,0,0,1,14.25,3.958V5.542a.792.792,0,0,1-1.583,0V3.958a2.378,2.378,0,0,0-2.375-2.375H3.958A2.378,2.378,0,0,0,1.583,3.958V15.042a2.378,2.378,0,0,0,2.375,2.375H7.125A.791.791,0,0,1,7.917,18.208ZM11.083,4.75a.791.791,0,0,0-.792-.792H3.958a.792.792,0,0,0,0,1.583h6.333A.791.791,0,0,0,11.083,4.75ZM7.917,8.708a.791.791,0,0,0-.792-.792H3.958a.792.792,0,0,0,0,1.583H7.125A.791.791,0,0,0,7.917,8.708ZM3.958,11.875a.792.792,0,0,0,0,1.583H5.542a.792.792,0,1,0,0-1.583ZM19,13.458a5.542,5.542,0,1,1-5.542-5.542A5.549,5.549,0,0,1,19,13.458Zm-1.583,0a3.958,3.958,0,1,0-3.958,3.958A3.963,3.963,0,0,0,17.417,13.458Zm-2.527-.982-1.76,1.689a.3.3,0,0,1-.413,0l-.9-.877a.792.792,0,1,0-1.108,1.13l.9.878a1.881,1.881,0,0,0,1.317.534,1.859,1.859,0,0,0,1.309-.531l1.752-1.681a.792.792,0,1,0-1.1-1.142Z" fill="#003462"/>
</svg>
