<svg xmlns="http://www.w3.org/2000/svg" width="23.675" height="24" viewBox="0 0 23.675 24">
  <path id="office" d="M7.073,11.242a.845.845,0,0,1,.846-.846h5.073a.846.846,0,1,1,0,1.691H7.919A.845.845,0,0,1,7.073,11.242Zm5.919,2.537H7.919a.846.846,0,1,0,0,1.691h5.073a.846.846,0,1,0,0-1.691Zm0,3.382H7.919a.846.846,0,0,0,0,1.691h5.073a.846.846,0,1,0,0-1.691Zm0,3.382H7.919a.846.846,0,1,0,0,1.691h5.073a.846.846,0,1,0,0-1.691ZM25.675,24.77a.845.845,0,0,1-.846.846H2.846a.846.846,0,1,1,0-1.691h.846V8.382a1.683,1.683,0,0,1,.934-1.513L14.772,1.8a1.69,1.69,0,0,1,2.447,1.513V9.551h5.073a1.693,1.693,0,0,1,1.691,1.691V23.925h.846a.845.845,0,0,1,.846.846ZM17.22,11.242V23.925h5.073V11.242ZM5.382,23.925H15.529V3.309L5.382,8.382Z" transform="translate(-2 -1.616)" fill="#757575"/>
</svg>
