<svg xmlns="http://www.w3.org/2000/svg" width="15.999" height="15.999" viewBox="0 0 15.999 15.999">
  <path id="square-plus" d="M11.333,8a.666.666,0,0,1-.667.667h-2v2a.667.667,0,0,1-1.333,0v-2h-2a.667.667,0,1,1,0-1.333h2v-2a.667.667,0,1,1,1.333,0v2h2A.666.666,0,0,1,11.333,8ZM16,3.333v9.333A3.337,3.337,0,0,1,12.666,16H3.333A3.337,3.337,0,0,1,0,12.666V3.333A3.337,3.337,0,0,1,3.333,0h9.333A3.337,3.337,0,0,1,16,3.333Zm-1.333,0a2,2,0,0,0-2-2H3.333a2,2,0,0,0-2,2v9.333a2,2,0,0,0,2,2h9.333a2,2,0,0,0,2-2Z" fill="#fff"/>
</svg>
