<svg xmlns="http://www.w3.org/2000/svg" width="16" height="19.2" viewBox="0 0 16 19.2">
  <g id="trash" transform="translate(-2)">
    <path id="Path_8561" data-name="Path 8561" d="M17.2,3.2H14.72A4.007,4.007,0,0,0,10.8,0H9.2A4.007,4.007,0,0,0,5.28,3.2H2.8a.8.8,0,0,0,0,1.6h.8V15.2a4,4,0,0,0,4,4h4.8a4,4,0,0,0,4-4V4.8h.8a.8.8,0,0,0,0-1.6Zm-8-1.6h1.6a2.4,2.4,0,0,1,2.263,1.6H6.937A2.4,2.4,0,0,1,9.2,1.6Zm5.6,13.6a2.4,2.4,0,0,1-2.4,2.4H7.6a2.4,2.4,0,0,1-2.4-2.4V4.8h9.6Z" transform="translate(0)" fill="#003462"/>
    <path id="Path_8562" data-name="Path 8562" d="M9.708,15.667a.708.708,0,0,0,.708-.708v-4.25a.708.708,0,1,0-1.417,0v4.25A.708.708,0,0,0,9.708,15.667Z" transform="translate(-1.329 -1.542)" fill="#003462"/>
    <path id="Path_8563" data-name="Path 8563" d="M13.708,15.667a.708.708,0,0,0,.708-.708v-4.25a.708.708,0,1,0-1.417,0v4.25A.708.708,0,0,0,13.708,15.667Z" transform="translate(-2.088 -1.542)" fill="#003462"/>
  </g>
</svg>
